<?xml version="1.0" encoding="utf-8"?>
<!-- Generator: Adobe Illustrator 25.2.0, SVG Export Plug-In . SVG Version: 6.00 Build 0)  -->
<svg version="1.1" id="Layer_1" xmlns="http://www.w3.org/2000/svg" xmlns:xlink="http://www.w3.org/1999/xlink" x="0px" y="0px"
	 viewBox="0 0 500 500" style="enable-background:new 0 0 500 500;" xml:space="preserve">
<style type="text/css">
	.st0{display:none;fill:#B21FA4;}
	.st1{fill:#B48E1E;}
	.st2{fill-rule:evenodd;clip-rule:evenodd;fill:#B48E1E;}
	.st3{fill:#FFFFFF;}
	.st4{font-family:'Bebas-Regular';}
	.st5{font-size:36px;}
	.st6{font-size:24px;}
</style>
<rect x="92.2" y="172.3" class="st0" width="298.4" height="165.2"/>
<image style="display:none;overflow:visible;" width="180" height="53" xlink:href="logo.png"  transform="matrix(1 0 0 1 160 223)">
</image>
<path class="st1" d="M178.8,204.9c-10.7,0-16.3,6.4-16.3,17.5v36.2c0,11.1,5.6,17.5,16.3,17.5c1.9,0,3.7-0.2,5.3-0.6v-12.3
	c-0.9,2-2.6,2.8-5,2.8c-3.5,0-5.7-1.8-5.7-6.8v-37.5c0-5,2.2-6.9,5.7-6.9c3.5,0,5.7,1.9,5.7,6.9v7.5h10.3v-6.8
	C195.1,211.2,189.5,204.9,178.8,204.9"/>
<path class="st2" d="M213.3,244.8c-5.8,7.3-11.5,14.5-17.3,21.7c0.3,0.3,2.5,3.1,3.7,4.3c2.9-3.6,5.6-7.1,8.6-10.9V276h5.4v-31.7
	L213.3,244.8z"/>
<path class="st2" d="M198.2,259.9c-0.1-0.1-0.2-0.2-0.3-0.3c0,0-0.1-0.1-0.1-0.1c0,0,0-0.1-0.1-0.1l0,0c-4-5-7.9-10-12-15.1v31.4
	c0.8-1,1.5-1.8,2.1-2.7c1.1-1.4,2.6-2.7,3.2-4.3c0.6-1.6,0.1-3.6,0.1-5.4v-3c0.1,0,0.2,0,0.3-0.1c1.1,1.4,2.2,2.7,3.3,4.1
	c0.3-0.3,0.5-0.6,0.7-0.9C196.4,262.3,197.4,261.2,198.2,259.9C198.3,259.9,198.3,259.9,198.2,259.9"/>
<text transform="matrix(1 0 0 1 225.0737 246.5475)" class="st3 st4 st5">Centrale</text>
<text transform="matrix(1 0 0 1 256.6526 270.8001)" class="st3 st4 st6">Meuble</text>
<rect x="226.1" y="263.5" class="st1" width="19.5" height="1.8"/>
</svg>
